<svg width="16" height="17" viewBox="0 0 16 17" fill="none" xmlns="http://www.w3.org/2000/svg">
<g id="Group 22">
<g id="Icon">
<path d="M1.3333 6.75148C1.3333 6.51794 1.3333 6.40116 1.34304 6.30281C1.43703 5.35418 2.18748 4.60373 3.13611 4.50974C3.23446 4.5 3.35754 4.5 3.60369 4.5C3.69853 4.5 3.74596 4.5 3.78622 4.49756C4.30037 4.46642 4.7506 4.14192 4.94273 3.664C4.95777 3.62657 4.97184 3.58438 4.99996 3.5C5.02809 3.41562 5.04216 3.37343 5.0572 3.336C5.24933 2.85808 5.69956 2.53358 6.21371 2.50244C6.25397 2.5 6.29844 2.5 6.38739 2.5H9.61254C9.70148 2.5 9.74596 2.5 9.78622 2.50244C10.3004 2.53358 10.7506 2.85808 10.9427 3.336C10.9578 3.37343 10.9718 3.41562 11 3.5C11.0281 3.58438 11.0422 3.62657 11.0572 3.664C11.2493 4.14192 11.6996 4.46642 12.2137 4.49756C12.254 4.5 12.3014 4.5 12.3962 4.5C12.6424 4.5 12.7655 4.5 12.8638 4.50974C13.8125 4.60373 14.5629 5.35418 14.6569 6.30281C14.6666 6.40116 14.6666 6.51794 14.6666 6.75148V11.9667C14.6666 13.0868 14.6666 13.6468 14.4486 14.0746C14.2569 14.451 13.9509 14.7569 13.5746 14.9487C13.1468 15.1667 12.5867 15.1667 11.4666 15.1667H4.5333C3.41319 15.1667 2.85314 15.1667 2.42532 14.9487C2.04899 14.7569 1.74303 14.451 1.55128 14.0746C1.3333 13.6468 1.3333 13.0868 1.3333 11.9667V6.75148Z" stroke="white" stroke-linecap="round" stroke-linejoin="round"/>
<path d="M7.99996 12.1667C9.47272 12.1667 10.6666 10.9728 10.6666 9.5C10.6666 8.02724 9.47272 6.83333 7.99996 6.83333C6.52721 6.83333 5.3333 8.02724 5.3333 9.5C5.3333 10.9728 6.52721 12.1667 7.99996 12.1667Z" stroke="white" stroke-linecap="round" stroke-linejoin="round"/>
</g>
</g>
</svg>
