<svg width="24" height="24" viewBox="0 0 24 24" fill="none" xmlns="http://www.w3.org/2000/svg">
<g id="Group 24">
<g id="Group 25">
<g id="Ellipse 8" filter="url(#filter0_b_411_3291)">
<circle cx="12" cy="12" r="12" fill="white" fill-opacity="0.3"/>
<circle cx="12" cy="12" r="11.5" stroke="white" stroke-opacity="0.4"/>
</g>
<g id="Group 23">
<path id="Icon" d="M11.8299 7.23048C11.9644 6.9581 12.0316 6.82191 12.1229 6.77839C12.2023 6.74054 12.2945 6.74054 12.3739 6.77839C12.4652 6.82191 12.5324 6.9581 12.6668 7.23048L13.9424 9.81463C13.9821 9.89504 14.0019 9.93525 14.031 9.96646C14.0566 9.9941 14.0874 10.0165 14.1216 10.0324C14.1603 10.0504 14.2046 10.0569 14.2934 10.0698L17.1466 10.4869C17.4471 10.5308 17.5973 10.5527 17.6668 10.6261C17.7273 10.69 17.7558 10.7777 17.7443 10.8649C17.731 10.9651 17.6223 11.0711 17.4047 11.2829L15.3409 13.2931C15.2765 13.3558 15.2444 13.3871 15.2236 13.4244C15.2052 13.4574 15.1935 13.4937 15.1889 13.5312C15.1838 13.5735 15.1914 13.6178 15.2065 13.7063L15.6935 16.5456C15.7449 16.8451 15.7706 16.9948 15.7223 17.0837C15.6803 17.161 15.6057 17.2152 15.5192 17.2312C15.4197 17.2497 15.2853 17.179 15.0164 17.0375L12.4656 15.6961C12.3861 15.6543 12.3464 15.6334 12.3045 15.6252C12.2674 15.6179 12.2293 15.6179 12.1923 15.6252C12.1504 15.6334 12.1106 15.6543 12.0312 15.6961L9.48041 17.0375C9.21149 17.179 9.07703 17.2497 8.97761 17.2312C8.8911 17.2152 8.81646 17.161 8.77447 17.0837C8.72621 16.9948 8.75189 16.8451 8.80325 16.5456L9.29022 13.7063C9.3054 13.6178 9.313 13.5735 9.30786 13.5312C9.30331 13.4937 9.29152 13.4574 9.27314 13.4244C9.25239 13.3871 9.22022 13.3558 9.15588 13.2931L7.09203 11.2829C6.87451 11.0711 6.76575 10.9651 6.75251 10.8649C6.741 10.7777 6.76945 10.69 6.82994 10.6261C6.89946 10.5527 7.04969 10.5308 7.35015 10.4869L10.2034 10.0698C10.2921 10.0569 10.3365 10.0504 10.3751 10.0324C10.4093 10.0165 10.4401 9.9941 10.4658 9.96646C10.4948 9.93525 10.5147 9.89504 10.5544 9.81463L11.8299 7.23048Z" stroke="white" stroke-linecap="round" stroke-linejoin="round"/>
</g>
</g>
</g>
<defs>
<filter id="filter0_b_411_3291" x="-3" y="-3" width="30" height="30" filterUnits="userSpaceOnUse" color-interpolation-filters="sRGB">
<feFlood flood-opacity="0" result="BackgroundImageFix"/>
<feGaussianBlur in="BackgroundImageFix" stdDeviation="1.5"/>
<feComposite in2="SourceAlpha" operator="in" result="effect1_backgroundBlur_411_3291"/>
<feBlend mode="normal" in="SourceGraphic" in2="effect1_backgroundBlur_411_3291" result="shape"/>
</filter>
</defs>
</svg>
