<svg width="54" height="42" viewBox="0 0 54 42" fill="none" xmlns="http://www.w3.org/2000/svg">
<g id="Group 51">
<path id="&#226;&#128;&#156;" d="M13.2661 42C19.3039 42 24.4063 37.5233 24.4063 31.3372C24.4063 24.6628 19.3039 20.6744 13.2661 20.6744C10.8 20.6744 8.50394 21.5698 6.80315 22.8721C6.46299 21.8953 6.29291 20.8372 6.29291 19.3721C6.29291 12.8605 12.4157 5.86047 19.5591 3.01163L17.9433 0C5.6126 5.53488 0 14.8953 0 25.7209C0 28.407 0.510236 33.0465 2.97638 36.7093C5.10236 39.8837 8.16378 42 13.2661 42ZM42.8598 42C48.9827 42 54 37.5233 54 31.3372C54 24.6628 48.9827 20.6744 42.8598 20.6744C40.3937 20.6744 38.1827 21.5698 36.3969 22.8721C36.0567 21.8953 35.8866 20.8372 35.8866 19.3721C35.8866 12.8605 42.0094 5.86047 49.1528 3.01163L47.537 0C35.2063 5.53488 29.5937 14.8953 29.5937 25.7209C29.5937 28.407 30.1039 33.0465 32.5701 36.7093C34.6961 39.8837 37.8425 42 42.8598 42Z" fill="#FF8935"/>
</g>
</svg>
