<svg width="202" height="43" viewBox="0 0 202 43" fill="none" xmlns="http://www.w3.org/2000/svg">
<g id="Group 85">
<g id="Group 84">
<circle id="Ellipse 352" cx="21.5" cy="21.5" r="21" stroke="#FCB026"/>
<g id="Subtract">
<path d="M21 18.4703C19.0473 18.4703 17.4643 20.0506 17.4643 22C17.4643 23.9494 19.0473 25.5297 21 25.5297C22.9527 25.5297 24.5356 23.9494 24.5356 22C24.5356 20.0506 22.9527 18.4703 21 18.4703Z" fill="#FCB026"/>
<path fill-rule="evenodd" clip-rule="evenodd" d="M15.3098 12.3139C19.061 11.8954 22.939 11.8954 26.6902 12.3139C28.7554 12.5443 30.4212 14.1689 30.6636 16.2379C31.1121 20.0662 31.1121 23.9338 30.6636 27.7621C30.4212 29.8311 28.7554 31.4557 26.6902 31.6861C22.939 32.1046 19.061 32.1046 15.3098 31.6861C13.2446 31.4557 11.5788 29.8311 11.3364 27.7621C10.8879 23.9338 10.8879 20.0662 11.3364 16.2379C11.5788 14.1689 13.2446 12.5443 15.3098 12.3139ZM26.4394 15.4836C25.8386 15.4836 25.3516 15.9699 25.3516 16.5697C25.3516 17.1695 25.8386 17.6557 26.4394 17.6557C27.0403 17.6557 27.5273 17.1695 27.5273 16.5697C27.5273 15.9699 27.0403 15.4836 26.4394 15.4836ZM15.8325 22C15.8325 19.1509 18.1461 16.8412 21 16.8412C23.8539 16.8412 26.1675 19.1509 26.1675 22C26.1675 24.8491 23.8539 27.1588 21 27.1588C18.1461 27.1588 15.8325 24.8491 15.8325 22Z" fill="#FCB026"/>
</g>
</g>
<g id="Group 83">
<circle id="Ellipse 353" opacity="0.2" cx="127.5" cy="21.5" r="21" stroke="white" stroke-opacity="0.3"/>
<path id="Vector" d="M137 26.19C137 29.83 134.83 32 131.19 32H130C129.45 32 129 31.55 129 31V25.23C129 24.96 129.22 24.73 129.49 24.73L131.25 24.7C131.39 24.69 131.51 24.59 131.54 24.45L131.89 22.54C131.92 22.36 131.78 22.19 131.59 22.19L129.46 22.22C129.18 22.22 128.96 22 128.95 21.73L128.91 19.28C128.91 19.12 129.04 18.98 129.21 18.98L131.61 18.94C131.78 18.94 131.91 18.81 131.91 18.64L131.87 16.24C131.87 16.07 131.74 15.94 131.57 15.94L128.87 15.98C127.21 16.01 125.89 17.37 125.92 19.03L125.97 21.78C125.98 22.06 125.76 22.28 125.48 22.29L124.28 22.31C124.11 22.31 123.98 22.44 123.98 22.61L124.01 24.51C124.01 24.68 124.14 24.81 124.31 24.81L125.51 24.79C125.79 24.79 126.01 25.01 126.02 25.28L126.11 30.98C126.12 31.54 125.67 32 125.11 32H122.81C119.17 32 117 29.83 117 26.18V17.81C117 14.17 119.17 12 122.81 12H131.19C134.83 12 137 14.17 137 17.81V26.19Z" fill="white" fill-opacity="0.7"/>
</g>
<g id="Group 82">
<circle id="Ellipse 351" opacity="0.2" cx="180.5" cy="21.5" r="21" stroke="white" stroke-opacity="0.3"/>
<path id="Vector_2" d="M185 14H175C172 14 170 16 170 19V25C170 28 172 30 175 30H185C188 30 190 28 190 25V19C190 16 188 14 185 14ZM181.89 23.03L179.42 24.51C178.42 25.11 177.6 24.65 177.6 23.48V20.51C177.6 19.34 178.42 18.88 179.42 19.48L181.89 20.96C182.84 21.54 182.84 22.46 181.89 23.03Z" fill="white" fill-opacity="0.7"/>
</g>
<g id="Group 81">
<circle id="Ellipse 354" opacity="0.2" cx="74.5" cy="21.5" r="21" stroke="white" stroke-opacity="0.3"/>
<path id="Vector_3" d="M85 13.0091C84.1294 13.6232 83.1656 14.0929 82.1455 14.4001C81.5979 13.7705 80.8703 13.3243 80.0609 13.1218C79.2516 12.9193 78.3995 12.9702 77.6201 13.2677C76.8406 13.5652 76.1713 14.095 75.7027 14.7852C75.2341 15.4755 74.9888 16.2931 75 17.1273V18.0364C73.4024 18.0778 71.8193 17.7235 70.3918 17.005C68.9643 16.2865 67.7367 15.2261 66.8182 13.9182C66.8182 13.9182 63.1818 22.1 71.3636 25.7364C69.4914 27.0073 67.2611 27.6445 65 27.5546C73.1818 32.1 83.1818 27.5546 83.1818 17.1001C83.181 16.8468 83.1566 16.5942 83.1091 16.3455C84.0369 15.4305 84.6917 14.2752 85 13.0091Z" fill="white" fill-opacity="0.7"/>
</g>
</g>
</svg>
