<svg width="109" height="24" viewBox="0 0 109 24" fill="none" xmlns="http://www.w3.org/2000/svg">
<path id="Vector" fill-rule="evenodd" clip-rule="evenodd" d="M0.0126051 4.52768V9.05506L2.47213 6.60998L4.93166 4.1649V2.0823V0H2.47213H0.0126051V4.52768ZM4.77794 7.02226L0.166326 11.256L0.0830091 17.4645L0 23.673H2.6194H5.2391V18.7788V13.8847L7.44161 11.8746L9.64381 9.86455L11.4383 11.419L13.2326 12.9734V18.3232V23.673H15.9995H18.7665V17.1232V10.5738L14.3031 6.7471C11.8482 4.64267 9.7382 2.89087 9.6146 2.85459C9.49101 2.81831 7.31433 4.69401 4.77794 7.02226ZM28.5896 6.55188C24.8864 7.59226 22.6144 10.35 22.2507 14.2456C21.8827 18.1876 23.5435 21.4022 26.7849 23.0221C28.3559 23.807 29.0732 23.9804 30.7512 23.9804C36.2525 23.9804 39.77 20.5152 39.8038 15.0628C39.8345 10.1228 36.7915 6.79476 31.8195 6.32991C30.7284 6.22814 29.4227 6.31761 28.5896 6.55188ZM67.3696 6.46948C63.5567 7.25376 61.5313 11.0417 63.4232 13.8496C64.34 15.21 65.4923 15.8443 68.769 16.7924C71.7598 17.6582 72.2613 17.942 72.2613 18.7696C72.2613 19.7144 71.3881 20.2911 69.9585 20.2911C68.184 20.2911 67.7139 20.0777 67.1691 19.0241C66.7301 18.175 66.6228 18.139 64.527 18.139H62.3426L62.5178 19.2181C62.9424 21.8351 65.4976 23.6871 68.9889 23.9091C71.5972 24.0748 73.4222 23.6425 74.7177 22.5523C75.9841 21.4868 76.5654 20.2837 76.5654 18.7287C76.5654 16.1699 74.9292 14.7135 70.7551 13.5566C67.2552 12.5869 66.5053 11.9093 67.471 10.5886C67.7957 10.1446 68.2768 9.99183 69.3495 9.99183C70.6002 9.99183 70.9021 10.1243 71.6255 10.991C72.4144 11.9358 72.5718 11.9902 74.5185 11.9902H76.5771L76.3745 11.1447C75.5069 7.52677 71.7398 5.57083 67.3696 6.46948ZM85.5814 6.4535C83.7297 6.84333 82.6967 7.45668 81.2533 9.02217C78.0307 12.5184 78.4061 19.1379 81.9948 22.0961C84.0784 23.8138 87.5844 24.4603 90.4694 23.6588C92.0362 23.2238 94.0982 21.5885 94.9283 20.1229C95.9926 18.2436 95.913 18.139 93.4126 18.139C91.3558 18.139 91.1286 18.2064 90.2216 19.0856C88.3779 20.8725 85.5645 20.5288 84.2392 18.3545C83.909 17.8134 83.6384 17.2004 83.6378 16.9926C83.6369 16.7088 85.187 16.5938 89.8623 16.5314L96.0879 16.4481L96.0615 14.6035C96.047 13.5889 95.8558 12.2171 95.6366 11.5549C95.1173 9.9863 93.0372 7.73829 91.452 7.03241C89.9167 6.34866 87.3025 6.09102 85.5814 6.4535ZM107.156 6.43628C105.768 6.77416 104.33 7.59964 103.793 8.36762C103.325 9.03446 103.313 9.01848 103.313 7.75459V6.45626H101.161H99.0086V15.0646V23.673H101.161H103.313L103.315 19.1382C103.317 12.4194 103.773 11.387 106.853 11.1315L108.539 10.9916V8.57023C108.539 7.23839 108.436 6.16296 108.309 6.18018C108.182 6.1974 107.663 6.31269 107.156 6.43628ZM42.8016 12.8357C42.8936 18.7502 42.9507 19.3088 43.5896 20.5039C45.5588 24.1879 51.0626 25.1733 54.0411 22.3749L54.7371 21.721V22.6971V23.673H57.0429H59.3487V15.0646V6.45626H57.0429H54.7371L54.7353 11.4522C54.7334 17.0089 54.4755 18.4314 53.3017 19.355C52.0369 20.3495 49.7895 20.2241 48.5164 19.0872L47.5122 18.1907L47.4166 12.3235L47.3213 6.45626H45.0118H42.7023L42.8016 12.8357ZM29.2413 10.6842C27.7601 11.4393 27.0059 12.6122 26.831 14.4325C26.5214 17.6573 28.2299 19.9815 30.9104 19.9815C33.5034 19.9815 35.159 18.0529 35.1617 15.0302C35.1639 12.8012 34.2969 11.3209 32.5894 10.6378C31.0297 10.0137 30.5427 10.0204 29.2413 10.6842ZM85.4446 10.6076C84.7716 10.9735 83.6366 12.6909 83.6366 13.3433C83.6366 13.4447 85.3659 13.5274 87.4796 13.5274C91.619 13.5274 91.7103 13.485 90.989 11.9017C90.2619 10.3057 87.2807 9.60999 85.4446 10.6076Z" fill="white"/>
</svg>
